<?xml version="1.0" standalone="no"?>
<!DOCTYPE svg PUBLIC "-//W3C//DTD SVG 20010904//EN"
 "http://www.w3.org/TR/2001/REC-SVG-20010904/DTD/svg10.dtd">
<svg version="1.0" xmlns="http://www.w3.org/2000/svg"
 width="300.000000pt" height="200.000000pt" viewBox="0 0 300.000000 200.000000"
 preserveAspectRatio="xMidYMid meet">
<metadata>
Created by potrace 1.10, written by Peter Selinger 2001-2011
</metadata>
<g transform="translate(0.000000,200.000000) scale(0.100000,-0.100000)"
fill="#000000" stroke="none">
<path d="M1284 1911 c8 -12 -21 -34 -34 -26 -5 3 -10 1 -10 -4 0 -6 9 -11 21
-11 11 0 18 -4 15 -9 -3 -5 -18 -8 -32 -8 -16 0 -34 -10 -44 -23 -11 -14 -24
-21 -33 -17 -18 7 -17 -17 1 -35 7 -7 12 -18 12 -25 0 -7 7 -10 15 -7 10 4 15
0 15 -11 0 -9 5 -13 10 -10 6 3 10 1 10 -4 0 -6 -6 -11 -12 -11 -9 0 -8 -4 2
-10 12 -8 11 -10 -7 -10 -26 0 -38 -15 -22 -26 8 -5 9 -3 4 6 -6 9 0 11 23 6
28 -7 30 -5 37 31 6 34 4 40 -26 64 l-33 27 41 7 c36 6 44 12 62 47 l19 40
-20 -6 c-20 -5 -20 -4 -5 11 14 14 18 14 34 2 16 -13 17 -12 4 4 -13 17 -57
25 -47 8z"/>
<path d="M1320 1870 c0 -5 5 -21 12 -35 10 -23 40 -33 81 -26 14 2 7 -13 -20
-41 -24 -25 -25 -31 -16 -63 13 -40 11 -41 -28 -18 -27 16 -32 16 -57 2 -15
-9 -26 -21 -25 -27 2 -7 -4 -9 -15 -5 -9 3 -14 3 -10 -2 4 -4 3 -13 -2 -20 -6
-8 -5 -18 4 -30 10 -14 15 -15 21 -5 5 8 4 11 -2 7 -6 -4 -13 0 -17 8 -3 8 0
18 6 21 7 4 14 2 16 -4 2 -8 7 -8 17 1 7 7 11 14 10 17 -10 17 51 0 66 -18 14
-18 18 -19 23 -6 3 8 2 12 -4 9 -6 -3 -10 1 -10 10 0 13 4 14 20 5 19 -10 25
-6 20 15 -8 38 -8 45 0 45 5 0 11 -8 13 -17 4 -14 5 -13 6 3 0 12 -6 24 -14
28 -8 3 -15 10 -15 16 0 6 5 8 11 5 6 -4 13 2 16 14 3 11 10 18 16 14 7 -4 8
0 4 11 -4 10 -7 24 -7 31 0 7 -6 13 -12 12 -32 -1 -49 4 -43 13 3 5 -8 16 -24
25 -35 18 -41 18 -41 5z"/>
<path d="M2473 1854 c4 -7 0 -17 -8 -24 -8 -7 -15 -18 -15 -24 0 -6 6 -2 12 8
10 18 12 17 30 -15 11 -19 16 -25 12 -14 -3 11 -7 28 -8 38 -1 9 -8 23 -16 30
-8 7 -10 8 -7 1z"/>
<path d="M1574 1805 c2 -11 7 -30 11 -42 3 -12 1 -24 -5 -28 -5 -3 -10 -1 -10
4 0 6 -4 11 -10 11 -5 0 -7 -8 -3 -17 3 -10 3 -15 -2 -11 -4 4 -14 0 -22 -10
-8 -9 -12 -12 -9 -5 4 6 3 14 -2 17 -4 2 -9 -7 -10 -21 -1 -19 2 -24 14 -19 9
3 26 6 40 6 18 0 27 9 38 35 10 22 21 35 33 34 10 0 13 -3 6 -5 -8 -4 -9 -13
-1 -34 8 -24 17 -30 54 -36 l45 -6 -31 -22 c-29 -19 -31 -24 -26 -63 6 -48 2
-51 -34 -24 -22 17 -27 18 -52 5 -15 -8 -28 -19 -28 -25 0 -10 -26 -8 -62 6
-7 3 -22 -2 -33 -10 -20 -16 -20 -16 1 -6 15 7 34 6 65 -3 48 -14 73 -11 63 7
-3 7 2 3 10 -7 9 -11 16 -15 16 -9 0 6 9 9 21 6 16 -4 17 -8 7 -14 -9 -6 -9
-9 -1 -9 6 0 18 7 26 15 8 8 16 13 18 11 2 -2 13 6 24 17 11 11 15 17 8 13
-18 -10 -24 9 -12 43 9 25 14 29 25 20 16 -13 44 -5 43 13 0 10 -2 10 -6 1 -7
-18 -21 -16 -41 4 -16 16 -16 16 5 11 13 -3 26 -2 29 3 3 5 -2 9 -11 9 -9 0
-14 4 -11 9 7 10 -22 26 -54 30 -5 0 -10 9 -10 18 0 15 2 14 14 -3 17 -22 17
0 0 30 -10 17 -12 16 -18 -10 -5 -20 -10 -24 -16 -14 -4 7 -6 19 -3 26 3 8 -6
14 -24 16 l-28 4 25 11 c23 11 23 12 4 12 -23 1 -48 -21 -37 -32 3 -4 1 -7 -5
-7 -7 0 -12 8 -12 18 0 9 -5 24 -11 32 -8 12 -9 11 -5 -5z"/>
<path d="M952 1774 c6 -13 15 -24 19 -24 4 0 11 -9 14 -20 10 -32 34 -50 68
-50 l31 0 -27 -28 c-25 -26 -26 -31 -16 -61 14 -41 8 -46 -30 -26 -33 17 -42
15 -78 -18 l-22 -20 5 49 c5 47 4 50 -27 71 l-33 22 42 7 c34 5 43 11 51 36
11 31 7 48 -9 48 -5 0 -7 -6 -4 -14 4 -11 -1 -13 -29 -7 -25 6 -34 5 -34 -5 0
-9 8 -12 24 -8 18 5 22 3 17 -10 -3 -9 -10 -13 -15 -10 -6 3 -21 -1 -33 -10
-22 -14 -25 -14 -40 7 -16 21 -16 21 -7 1 6 -12 7 -25 3 -29 -4 -5 -2 -5 5 -1
8 4 18 -5 28 -24 9 -18 21 -28 27 -24 7 4 8 3 4 -5 -4 -6 -12 -9 -17 -6 -5 4
-9 2 -9 -4 0 -5 8 -12 18 -14 16 -4 16 -5 -1 -6 -10 0 -15 -6 -12 -11 4 -6 10
-8 14 -6 4 3 6 -8 3 -23 -2 -16 1 -32 7 -36 8 -5 10 2 6 22 l-6 28 13 -27 c13
-27 13 -27 46 -11 29 14 35 14 43 2 6 -10 9 -10 9 -1 0 9 4 10 19 1 23 -15 55
-4 48 16 -4 9 -1 12 10 8 13 -5 13 -2 -1 25 -13 25 -14 30 -2 26 8 -3 17 0 22
7 4 8 3 10 -4 5 -7 -4 -12 -2 -12 3 0 6 4 11 9 11 5 0 11 14 15 30 3 17 9 30
13 29 29 -5 60 4 69 19 10 15 8 18 -10 20 -16 1 -17 -1 -6 -8 12 -8 12 -10 -2
-15 -10 -4 -22 -4 -28 0 -5 3 -10 2 -10 -4 0 -18 -32 -4 -47 20 -13 22 -14 22
-10 3 4 -17 1 -20 -14 -17 -10 3 -16 9 -13 14 3 5 0 9 -6 9 -6 0 -8 5 -4 12 4
6 3 8 -3 5 -6 -4 -16 0 -23 8 -7 8 -25 21 -40 29 -28 14 -28 13 -18 -10z"/>
<path d="M1844 1759 c-1 -16 3 -29 7 -29 5 0 9 -8 10 -17 0 -14 2 -15 6 -3 3
8 13 24 22 35 16 20 16 20 -6 1 -23 -19 -27 -16 -24 16 1 9 -2 18 -6 21 -4 3
-8 -8 -9 -24z"/>
<path d="M2245 1710 c-3 -5 -2 -18 3 -27 5 -10 7 -25 5 -33 -3 -10 -2 -11 4
-4 4 6 15 14 23 17 12 4 11 6 -2 6 -16 1 -23 18 -19 44 1 10 -7 9 -14 -3z"/>
<path d="M1500 1654 c0 -26 20 -55 33 -48 9 5 9 4 0 -6 -10 -11 -15 -11 -29 1
-10 8 -15 9 -11 2 4 -6 1 -14 -5 -16 -7 -3 2 -6 20 -6 17 -1 32 -6 32 -12 0
-20 18 1 23 28 4 20 -1 35 -16 51 -24 26 -47 29 -47 6z"/>
<path d="M1290 1573 c0 -16 -5 -20 -20 -16 -11 3 -18 9 -15 12 2 4 -3 8 -12 8
-12 0 -11 -5 7 -19 12 -10 18 -18 12 -18 -6 0 -18 -3 -28 -7 -14 -5 -16 -3
-11 11 4 10 3 15 -4 11 -5 -4 -16 -1 -24 5 -20 16 -19 6 1 -14 11 -12 13 -20
5 -33 -7 -11 -11 -13 -11 -5 0 9 -10 6 -29 -10 -15 -13 -26 -27 -23 -32 3 -5
-2 -7 -10 -3 -12 4 -14 1 -11 -13 6 -23 -14 -35 -32 -20 -12 10 -12 8 -2 -13
6 -14 14 -24 17 -22 3 2 3 -17 1 -41 -1 -24 1 -44 6 -44 5 0 10 -7 10 -15 0
-11 -3 -12 -14 -3 -10 8 -17 8 -25 0 -19 -19 -48 -15 -42 6 5 14 4 14 -4 3
-12 -16 -112 -28 -112 -14 0 5 15 7 33 5 22 -2 38 2 46 12 9 11 10 16 2 16 -6
0 -11 -4 -11 -10 0 -5 -5 -10 -11 -10 -5 0 -7 6 -3 13 6 9 4 9 -8 -1 -17 -14
-51 -6 -41 11 3 6 1 7 -6 3 -6 -4 -9 -11 -6 -16 9 -15 -29 -29 -49 -18 -9 5
-20 7 -23 4 -4 -3 -12 -1 -20 5 -8 7 -13 8 -13 1 0 -5 6 -12 14 -15 14 -6 11
-52 -6 -74 -6 -7 -4 -13 4 -16 7 -2 10 -8 6 -12 -4 -4 -13 -4 -21 1 -7 5 -6 2
3 -6 21 -21 24 -110 3 -110 -9 0 -13 6 -10 15 4 8 3 16 -1 19 -4 2 -9 -6 -10
-19 -1 -15 5 -24 18 -28 15 -4 20 -14 20 -37 0 -17 -4 -29 -8 -26 -5 3 -9 -1
-9 -9 0 -8 4 -15 8 -15 4 0 6 -12 4 -27 -2 -16 -4 -32 -4 -36 -1 -5 -6 -5 -13
-1 -7 4 -8 3 -4 -5 4 -6 12 -8 18 -5 8 5 9 1 5 -10 -5 -12 -3 -16 5 -13 10 3
12 48 9 197 -2 125 0 194 7 199 5 3 74 5 152 3 158 -3 144 4 124 -69 -5 -19
-2 -23 15 -23 18 0 21 6 21 38 0 20 -7 62 -15 92 -18 66 -19 110 -2 131 9 12
160 99 171 99 2 0 8 -19 15 -42 18 -60 54 -120 96 -156 38 -34 134 -67 167
-59 15 4 18 2 13 -11 -3 -9 -11 -39 -16 -67 -18 -88 -24 -98 -67 -93 -20 3
-46 9 -57 13 -36 16 4 -24 47 -46 35 -18 38 -23 38 -61 0 -24 7 -49 16 -60 14
-14 14 -20 4 -33 -15 -18 -1 -61 37 -111 13 -17 23 -34 23 -37 0 -25 -190 21
-257 63 -40 24 -43 13 -5 -22 43 -40 106 -68 187 -81 81 -13 94 -27 55 -62
-30 -27 -131 -25 -196 4 -60 27 -128 91 -159 151 -30 59 -55 145 -55 190 0 27
-11 50 -47 98 l-48 62 -77 0 -78 0 0 -35 0 -35 95 0 95 0 0 -30 c0 -16 0 -32
0 -35 -1 -13 31 -36 42 -30 7 4 6 1 -3 -7 -11 -9 -14 -19 -8 -33 13 -33 10
-41 -7 -17 -8 12 -16 31 -17 42 -1 19 -10 23 -52 23 -8 0 -44 -1 -80 -2 l-65
-1 0 -30 0 -30 105 0 105 0 1 -32 c1 -18 1 -39 0 -45 -1 -7 5 -13 14 -13 10 0
13 5 9 13 -5 8 -2 7 10 -2 9 -8 15 -20 12 -28 -3 -7 -1 -13 4 -13 6 0 10 -9
10 -21 0 -13 4 -18 12 -13 7 5 9 0 6 -14 -4 -15 -1 -23 12 -27 10 -3 21 -13
24 -22 5 -13 4 -14 -9 -3 -9 7 -18 10 -21 7 -9 -8 35 -29 46 -22 9 6 14 -8 11
-27 0 -5 4 -8 9 -8 6 0 10 6 11 13 0 6 4 2 10 -11 5 -13 13 -21 17 -18 5 3 26
-10 47 -29 39 -37 57 -46 34 -19 -11 13 -9 14 17 8 16 -4 37 -8 46 -8 9 0 15
-3 12 -7 -5 -8 27 -22 34 -14 3 3 0 5 -6 5 -7 0 -12 4 -12 8 0 10 27 8 53 -3
17 -7 25 -26 10 -24 -23 4 -35 -3 -30 -16 8 -19 -13 -31 -24 -14 -7 11 -9 11
-9 1 0 -7 7 -15 16 -19 14 -5 12 -8 -7 -19 -18 -10 -20 -13 -7 -14 9 0 20 -5
24 -12 4 -6 3 -9 -2 -6 -8 6 -35 -15 -34 -27 1 -22 -2 -25 -12 -19 -10 6 -10
5 -1 -8 7 -8 12 -17 10 -19 -1 -2 14 14 35 36 35 37 38 44 32 83 l-5 42 36
-21 35 -21 36 27 35 27 -7 -29 c-3 -15 -8 -35 -10 -44 -3 -11 8 -27 28 -43
l33 -26 6 28 c6 31 3 42 -14 42 -7 0 -6 -4 3 -11 13 -9 13 -10 0 -6 -10 2 -16
17 -17 42 0 21 -7 41 -15 46 -15 10 -50 1 -60 -15 -5 -8 -8 -7 -8 2 0 7 -4 10
-10 7 -5 -3 -10 0 -10 7 0 9 -3 9 -10 -2 -9 -14 -11 -13 -14 10 0 5 -10 16
-21 24 -30 23 -7 19 34 -6 l36 -21 -23 22 c-19 19 -22 41 -6 41 3 0 3 -4 0 -9
-4 -5 3 -7 15 -4 15 4 17 8 8 14 -10 6 -7 11 11 18 14 5 19 10 13 10 -7 1 -13
9 -13 20 0 10 -10 26 -22 35 -15 11 -17 15 -6 12 20 -6 39 35 19 42 -6 2 -9 8
-5 13 3 5 -1 9 -8 10 -7 0 -4 4 7 9 19 9 19 9 -3 16 -17 5 -22 12 -19 25 3 11
0 22 -5 26 -6 3 -8 1 -4 -5 3 -6 2 -13 -3 -16 -5 -3 -8 8 -7 25 1 16 -1 32 -6
35 -4 3 -8 10 -8 16 0 7 6 6 15 -2 9 -8 15 -8 15 -2 0 6 -9 14 -20 17 -20 6
-20 7 2 26 15 12 17 17 7 13 -10 -3 -20 -1 -24 5 -3 6 0 11 7 11 9 0 9 3 -2
10 -8 5 -11 10 -6 10 5 0 1 9 -8 19 -13 14 -14 21 -5 27 8 4 10 3 5 -4 -4 -7
-3 -12 2 -12 6 0 13 17 17 38 4 20 12 43 18 50 8 10 7 16 -4 24 -11 8 -11 9 3
5 9 -3 19 1 22 9 3 9 1 12 -4 9 -6 -3 -10 -2 -10 4 0 14 18 23 30 16 7 -4 7
-13 0 -26 -7 -13 -7 -19 0 -19 12 0 13 -30 1 -49 -8 -13 -12 -13 -27 0 -11 8
-15 9 -10 2 4 -7 2 -23 -4 -35 -10 -21 -10 -21 3 -6 13 17 15 17 31 0 17 -20
22 -52 7 -52 -5 0 -12 6 -14 13 -3 7 -6 4 -6 -6 -1 -11 -6 -15 -13 -11 -7 4
-8 3 -4 -4 5 -8 15 -8 34 -2 l27 10 -25 -21 c-22 -18 -22 -21 -5 -17 18 3 20
-2 17 -44 -2 -25 2 -49 7 -53 13 -7 9 350 -3 362 -4 4 -14 -1 -22 -11 -14 -19
-14 -19 -14 3 0 12 4 19 10 16 6 -3 10 -1 10 4 0 6 -4 11 -10 11 -5 0 -11 12
-11 28 -1 15 -3 20 -6 10 -3 -12 -14 -16 -43 -14 -22 1 -42 5 -46 9 -7 7 9 11
36 8 12 -1 12 1 -2 9 -17 10 -48 4 -48 -10 0 -5 -9 -6 -20 -3 -11 3 -17 9 -14
14 3 5 10 7 15 4 5 -4 9 -1 9 5 0 7 -8 9 -21 5 -15 -5 -19 -4 -15 4 5 7 -1 11
-14 11 -21 0 -65 44 -65 65 0 5 -4 13 -10 17 -5 4 -10 18 -10 30 0 14 -5 22
-13 20 -8 -1 -11 2 -7 8 3 5 0 10 -7 10 -8 0 -9 3 -2 8 6 4 4 13 -8 25 -12 11
-18 13 -18 5 -1 -7 -7 -2 -15 12 -14 24 -14 24 -15 3z m-279 -433 c6 0 7 5 4
10 -9 14 8 13 23 -2 9 -9 12 -9 12 0 0 7 5 12 11 12 5 0 8 -4 4 -9 -3 -6 3
-14 12 -20 25 -14 -3 -14 -30 0 -16 9 -22 9 -25 0 -5 -15 -32 5 -31 23 0 7 2
6 6 -1 2 -7 9 -13 14 -13z m79 -140 c-13 -9 -13 -11 0 -21 12 -8 9 -9 -10 -4
-14 4 -29 12 -35 18 -7 7 -6 8 3 3 6 -4 12 -3 12 1 0 5 10 10 22 10 18 2 20 0
8 -7z"/>
<path d="M2475 1490 c3 -6 13 -10 21 -10 8 0 12 -4 9 -10 -3 -5 -1 -10 4 -10
6 0 11 5 11 11 0 5 5 7 10 4 6 -3 10 -2 10 4 0 5 -4 13 -10 16 -5 3 -10 2 -10
-4 0 -7 -8 -7 -26 -1 -16 7 -23 7 -19 0z"/>
<path d="M420 1482 c0 -4 6 -14 13 -21 10 -11 8 -13 -10 -8 -27 6 -31 -8 -5
-15 28 -8 41 14 20 35 -10 9 -18 13 -18 9z"/>
<path d="M2190 1406 c0 -9 4 -15 9 -12 5 4 11 2 13 -3 4 -12 56 -22 62 -12 3
4 -7 8 -21 9 -15 1 -35 9 -45 19 -17 15 -18 15 -18 -1z"/>
<path d="M2694 1397 c-7 -20 18 -62 39 -63 9 -1 17 2 17 7 0 5 -7 9 -15 9 -17
0 -39 36 -30 50 3 6 4 10 0 10 -3 0 -8 -6 -11 -13z"/>
<path d="M486 1375 c-16 -12 -22 -12 -28 -2 -4 7 -8 8 -8 1 0 -18 12 -24 31
-14 14 8 22 4 38 -16 12 -15 21 -22 21 -17 0 5 -9 18 -20 28 -11 10 -17 22
-14 26 7 12 2 11 -20 -6z"/>
<path d="M773 1355 c-18 -19 -19 -24 -7 -29 8 -3 13 -2 10 3 -5 8 23 39 31 34
1 -2 3 0 4 4 1 16 -17 10 -38 -12z"/>
<path d="M374 1329 c-4 -8 -3 -9 4 -5 22 14 12 -23 -10 -38 -12 -9 -18 -16
-12 -16 5 0 15 5 22 12 9 9 15 9 23 1 7 -7 3 -12 -15 -17 -14 -3 -26 -13 -26
-22 0 -9 -5 -13 -12 -9 -7 4 -5 0 5 -8 21 -18 22 -28 1 -20 -14 5 -13 2 2 -16
20 -23 21 -75 1 -100 -9 -12 -9 -13 1 -7 6 4 12 3 12 -3 0 -17 -19 -22 -42
-11 -21 11 -21 10 2 -9 13 -10 27 -18 31 -15 4 2 9 -3 13 -11 3 -9 0 -15 -9
-15 -8 0 -15 -5 -15 -11 0 -5 5 -7 10 -4 7 4 9 -3 6 -19 -2 -13 1 -27 7 -31 7
-3 2 -3 -10 -1 -13 2 -28 -3 -35 -13 -11 -14 -11 -14 2 -4 13 10 18 6 32 -17
16 -28 16 -30 0 -41 -16 -10 -16 -10 0 -5 9 3 19 0 22 -7 2 -7 4 79 3 191 l-2
202 58 0 c50 0 57 -2 57 -20 0 -11 7 -20 15 -20 18 0 18 1 2 32 -9 18 -19 24
-35 21 -17 -2 -21 1 -16 9 6 10 5 10 -7 1 -13 -10 -19 -10 -35 3 -18 14 -18
15 4 4 15 -7 22 -7 22 0 0 9 -21 15 -42 11 -5 0 -8 5 -8 13 0 20 -17 29 -26
15z"/>
<path d="M1944 1313 c-16 -15 -28 -30 -27 -33 1 -4 -10 -5 -24 -2 -18 3 -24 1
-19 -7 4 -6 11 -9 16 -6 4 3 14 -3 21 -12 8 -10 9 -14 2 -10 -6 4 -14 3 -18
-3 -3 -5 1 -10 10 -10 9 0 13 -5 10 -10 -4 -6 -11 -7 -17 -4 -7 5 -9 1 -5 -9
3 -10 2 -17 -3 -17 -6 0 -10 -4 -10 -10 0 -6 5 -9 11 -8 6 2 14 -4 16 -12 4
-13 3 -13 -6 0 -10 13 -11 13 -11 0 -1 -9 -6 -5 -16 10 -14 23 -14 23 -9 3 7
-27 0 -29 -22 -8 -12 13 -18 13 -32 3 -14 -12 -15 -11 -2 5 11 14 11 17 0 17
-12 0 -12 2 0 9 11 7 11 9 0 14 -11 4 -11 6 -1 6 18 1 5 21 -13 21 -11 0 -14
-12 -12 -52 1 -29 5 -52 10 -50 4 1 37 2 73 2 l66 0 -2 38 c-1 20 -2 54 -1 75
l1 37 45 0 c25 0 45 5 45 10 0 6 -7 10 -15 10 -7 0 -18 7 -23 15 -7 13 -13 12
-38 -12z"/>
<path d="M2546 1324 c-3 -8 -11 -12 -17 -8 -8 4 -9 -1 -4 -16 5 -14 3 -20 -3
-16 -6 3 -12 1 -14 -6 -3 -8 -12 -4 -26 10 -13 13 -27 20 -32 17 -5 -3 -11 -1
-15 5 -4 6 -12 7 -18 3 -19 -12 -47 -11 -47 2 0 6 -7 12 -15 12 -8 0 -11 -5
-8 -10 4 -6 0 -8 -10 -4 -10 3 -17 3 -17 -1 0 -4 -9 -8 -19 -8 -11 0 -19 5
-18 10 1 5 -6 12 -17 14 -10 2 -16 0 -12 -6 7 -12 -13 -10 -33 2 -10 6 -12 5
-7 -2 4 -7 4 -12 -1 -13 -4 0 -16 -2 -25 -4 -10 -2 -15 2 -12 9 3 7 -2 13 -10
13 -8 0 -14 -5 -13 -11 1 -6 -14 -11 -35 -10 l-36 0 19 -25 c12 -15 16 -27 10
-29 -6 -2 -8 -8 -5 -14 4 -5 -4 -5 -16 2 -24 13 -22 3 7 -31 12 -14 11 -17 -8
-22 -32 -9 -35 -5 -34 56 0 29 -4 54 -10 54 -6 0 -9 -74 -7 -206 l3 -206 -52
0 c-45 0 -53 -3 -60 -23 -6 -15 -5 -21 2 -17 5 4 17 1 25 -6 8 -6 17 -9 20 -6
3 3 -4 10 -15 17 -12 6 -21 14 -21 19 0 11 62 1 79 -13 11 -8 13 -8 7 2 -7 11
5 17 27 13 5 -1 5 9 1 21 -6 20 -5 21 10 9 14 -11 16 -11 16 2 0 8 -7 17 -15
21 -16 6 -10 32 13 55 12 13 11 16 -9 24 -23 8 -23 9 -5 22 20 15 56 4 56 -17
0 -7 -5 -6 -15 2 -15 13 -20 3 -7 -15 17 -24 32 -14 32 21 0 24 -4 34 -12 31
-7 -2 -21 0 -32 5 -13 7 -16 7 -12 -1 4 -6 3 -11 -2 -11 -15 0 -22 28 -9 34 9
3 8 7 -2 14 -11 8 -11 10 0 15 10 4 10 6 2 6 -7 1 -13 8 -13 16 0 9 6 12 15 9
8 -4 15 -12 15 -20 0 -8 7 -14 15 -14 8 0 15 -5 15 -11 0 -5 -4 -8 -8 -5 -5 3
-9 -1 -9 -7 0 -7 8 -14 18 -14 16 -2 17 9 15 112 l-2 114 165 3 166 3 0 -44
c0 -25 5 -46 12 -48 6 -2 10 3 8 14 -2 10 -4 18 -5 18 -1 0 -3 10 -6 22 -3 16
1 20 14 16 12 -3 17 -15 18 -39 0 -22 9 -42 22 -55 24 -21 29 -35 10 -23 -8 5
-9 2 -4 -12 12 -29 13 -58 3 -72 -7 -8 -7 -16 0 -23 6 -6 7 -26 3 -49 -4 -24
-3 -43 4 -50 8 -8 7 -13 -4 -20 -13 -8 -12 -10 3 -10 15 0 17 13 17 141 0 121
-2 140 -15 135 -8 -3 -15 -1 -15 3 0 5 5 11 12 13 7 3 11 21 10 49 l-3 44 61
-3 60 -4 0 -144 c0 -79 4 -144 8 -144 17 0 20 11 12 45 -5 24 -4 33 3 28 6 -4
8 0 4 10 -5 14 0 17 26 18 18 0 26 3 19 6 -6 2 -9 10 -6 16 5 8 2 8 -7 0 -17
-17 -34 -17 -21 0 8 10 6 22 -9 46 -11 18 -14 29 -7 25 10 -6 9 -3 -1 9 -12
15 -11 17 4 17 14 0 15 3 5 15 -6 8 -13 28 -14 44 -2 24 1 28 11 19 10 -8 13
-7 13 5 0 15 -23 18 -36 4 -4 -4 -31 -7 -60 -7 -43 0 -52 3 -48 15 4 8 4 15 1
15 -3 0 -8 -7 -11 -16z m-442 -153 c-3 -3 -10 -6 -15 -6 -5 0 -8 -4 -7 -10 1
-5 7 -9 13 -8 6 2 11 -6 11 -17 0 -26 -7 -25 -30 6 -13 19 -15 28 -7 33 14 9
44 10 35 2z"/>
<path d="M1702 1308 c-10 -21 -11 -22 -11 -3 -1 17 -3 17 -11 5 -17 -26 -11
-30 40 -30 39 0 50 3 50 16 0 13 -7 15 -31 10 -27 -5 -30 -4 -19 9 7 8 8 15 3
15 -6 0 -15 -10 -21 -22z"/>
<path d="M690 1302 c0 -6 -10 -16 -22 -22 -22 -11 -22 -10 -4 4 18 14 18 16 3
16 -10 0 -20 -7 -23 -15 -4 -10 -11 -12 -22 -6 -23 13 -53 -5 -45 -27 6 -15 4
-15 -15 2 -12 11 -25 16 -29 13 -3 -4 -1 -7 5 -7 6 0 9 -9 7 -20 -3 -14 2 -20
13 -20 15 -1 15 -2 1 -10 -9 -5 -26 -8 -38 -5 -19 3 -21 -1 -21 -42 l0 -46 21
27 c11 14 17 31 13 37 -4 7 -3 9 4 5 12 -7 70 63 66 82 -1 7 0 8 3 2 2 -5 32
-9 66 -9 34 1 52 4 39 6 -12 2 -20 8 -17 13 3 5 13 6 23 3 18 -7 17 -5 -10 16
-12 9 -18 9 -18 3z"/>
<path d="M749 1303 c0 -5 -2 -16 -4 -25 -2 -11 2 -15 11 -11 8 3 14 1 14 -5 0
-5 -9 -12 -21 -15 -13 -4 -18 -10 -13 -18 4 -7 3 -10 -3 -6 -6 4 -27 -13 -47
-37 -36 -44 -45 -66 -26 -66 6 0 10 5 10 10 0 6 11 15 25 20 14 5 25 16 23 22
-1 7 9 26 24 41 19 21 33 27 52 23 14 -3 26 0 26 6 0 5 -7 7 -16 4 -11 -4 -18
1 -21 14 -3 11 -11 20 -19 20 -8 0 -11 6 -8 15 4 8 3 15 0 15 -3 0 -6 -3 -7
-7z"/>
<path d="M1783 1278 c4 -41 58 -40 56 1 0 10 -4 6 -10 -9 l-10 -25 -15 28
c-18 33 -25 34 -21 5z"/>
<path d="M1325 1261 c-70 -32 -115 -96 -115 -162 0 -34 16 -39 25 -6 4 12 16
43 27 69 17 41 26 49 74 68 62 25 144 24 171 -3 14 -14 8 -15 -58 -14 -105 2
-143 -26 -160 -117 -13 -75 40 -149 116 -161 59 -8 144 32 120 57 -3 3 -22 -3
-43 -13 -46 -24 -79 -24 -119 1 -59 36 -67 137 -13 185 28 25 94 31 126 10 25
-16 27 -16 55 11 16 15 29 33 29 40 0 19 -95 54 -147 54 -26 0 -66 -9 -88 -19z"/>
<path d="M2705 1245 c2 -23 8 -41 16 -43 10 -3 11 -1 2 5 -8 6 -9 14 -3 23 12
19 13 43 1 36 -5 -4 -11 0 -14 6 -2 7 -3 -5 -2 -27z"/>
<path d="M2230 1165 l0 -35 100 0 100 0 0 -43 0 -43 -100 2 -100 2 0 -34 0
-34 101 0 c74 0 104 4 115 14 8 8 10 17 5 20 -5 4 -11 0 -14 -6 -3 -10 -7 -10
-17 -1 -8 7 -21 8 -34 3 -14 -5 -28 -3 -40 6 -17 12 -15 13 25 12 79 -2 80 -1
74 32 -3 17 -1 30 4 30 5 0 12 7 15 16 3 8 2 12 -4 9 -5 -3 -14 4 -20 15 -9
16 -8 20 6 20 24 0 14 8 -19 14 -28 5 -46 -8 -25 -18 7 -3 4 -4 -7 -3 -11 2
-19 9 -17 15 1 7 -4 12 -10 12 -7 0 -5 5 5 11 9 5 22 7 29 3 6 -4 24 -8 39 -8
21 -1 25 2 17 12 -7 8 -44 12 -119 12 l-109 0 0 -35z m90 -10 c-12 -15 -40
-10 -40 7 0 6 7 4 17 -3 15 -13 15 -12 4 9 -12 22 -11 23 9 12 17 -9 19 -14
10 -25z"/>
<path d="M164 1135 c11 -17 13 -25 4 -25 -6 0 -3 -6 8 -14 11 -8 21 -10 22 -5
2 6 11 4 20 -3 15 -12 15 -11 4 4 -8 9 -20 14 -28 11 -8 -3 -14 -2 -13 3 3 17
-13 54 -23 54 -6 0 -3 -11 6 -25z"/>
<path d="M689 1134 c-1 -5 -1 -13 0 -18 1 -5 -12 -6 -28 -3 -25 5 -33 2 -51
-23 l-21 -30 92 -100 c51 -55 97 -100 103 -100 5 0 1 7 -10 15 -10 8 -14 15
-9 14 22 -3 26 2 11 16 -17 18 -30 20 -20 3 4 -7 3 -8 -5 -4 -9 6 -9 11 0 22
11 14 10 15 -13 18 -7 1 -12 9 -12 19 1 9 -2 17 -7 17 -5 0 -9 8 -9 18 0 14
-2 15 -10 2 -8 -13 -12 -11 -30 7 -11 12 -20 26 -20 32 0 5 -5 11 -12 13 -14
5 -20 38 -6 38 6 0 8 -7 5 -14 -4 -10 -1 -13 8 -9 8 3 12 9 9 14 -5 8 9 13 28
10 9 -1 21 39 14 46 -3 4 -7 2 -7 -3z"/>
<path d="M1788 963 c2 -43 8 -82 13 -88 7 -7 8 -3 3 9 -5 13 -4 17 4 12 7 -4
9 1 6 16 -6 31 -7 98 -2 104 3 2 26 6 51 8 37 2 46 0 50 -16 3 -10 1 -18 -4
-18 -5 0 -9 5 -9 11 0 5 -4 7 -10 4 -5 -3 -10 -2 -10 4 0 6 -8 7 -17 4 -15 -6
-14 -8 5 -16 12 -6 22 -14 22 -19 0 -4 7 -8 16 -8 8 0 12 -5 9 -10 -4 -6 -11
-8 -16 -4 -13 8 -7 -18 9 -34 15 -16 7 -32 -15 -32 -9 0 -14 -3 -10 -6 3 -3
15 -3 26 1 19 6 21 14 21 81 l0 74 -72 0 -73 0 3 -77z"/>
<path d="M2834 1018 c-4 -7 -3 -8 4 -4 7 4 13 1 13 -6 1 -7 2 -17 4 -23 1 -5
3 -16 3 -23 1 -7 7 -10 13 -6 8 4 7 9 -2 15 -12 8 -11 11 1 19 10 6 11 10 3
10 -7 0 -13 7 -13 15 0 18 -16 20 -26 3z"/>
<path d="M1230 991 c0 -33 66 -96 115 -110 64 -17 140 -10 184 18 21 13 4 33
-18 21 -10 -5 -43 -12 -73 -15 -69 -8 -132 18 -176 71 -29 36 -31 37 -32 15z"/>
<path d="M500 953 c0 -31 4 -53 11 -53 5 0 8 4 5 9 -3 5 7 8 23 7 25 -1 28 -3
20 -18 -12 -22 -23 -24 -16 -4 4 10 1 13 -9 9 -11 -4 -12 -9 -3 -19 8 -10 16
-11 29 -4 13 7 21 6 26 -2 4 -6 3 -8 -3 -5 -6 4 -16 0 -22 -7 -9 -11 -9 -16 0
-22 7 -4 9 -3 6 3 -4 6 5 14 21 18 15 4 21 10 15 12 -7 3 -13 10 -13 17 0 18
-45 58 -55 49 -4 -5 -5 -3 -2 3 4 7 -2 23 -13 35 l-19 24 -1 -52z"/>
<path d="M2666 968 c11 -69 15 -78 30 -78 13 0 14 -3 5 -14 -9 -11 -9 -16 0
-22 7 -4 9 -3 5 4 -3 6 -2 13 3 17 6 3 8 12 4 20 -3 9 0 21 5 28 8 9 4 21 -14
45 -32 41 -45 41 -38 0z m39 -15 c10 -14 10 -20 -2 -31 -8 -8 -17 -11 -21 -8
-3 4 0 11 7 15 9 6 10 11 2 15 -12 8 -15 26 -5 26 4 0 12 -8 19 -17z"/>
<path d="M2090 973 c0 -2 7 -11 15 -19 8 -9 15 -22 15 -31 0 -11 -5 -8 -19 8
-11 13 -23 21 -27 17 -7 -7 34 -47 49 -48 5 0 7 16 5 37 -2 25 -8 37 -20 39
-10 1 -18 0 -18 -3z"/>
<path d="M2440 941 c0 -16 5 -33 10 -36 6 -4 10 6 10 24 0 16 -4 33 -10 36 -6
4 -10 -6 -10 -24z"/>
<path d="M285 901 c-3 -5 1 -16 9 -24 8 -8 13 -17 11 -21 -3 -3 -2 -4 1 -2 10
8 64 -16 58 -25 -3 -5 4 -9 15 -9 12 0 21 5 21 11 0 5 -5 7 -10 4 -6 -3 -13 1
-16 9 -3 9 -15 16 -26 16 -10 0 -17 4 -13 9 3 5 0 13 -6 17 -8 4 -9 3 -5 -4 4
-7 3 -12 -2 -12 -14 0 -33 26 -25 33 3 4 4 7 0 7 -3 0 -8 -4 -12 -9z"/>
<path d="M2524 891 c10 -11 26 -18 36 -16 13 2 17 -1 14 -10 -3 -8 -13 -11
-21 -8 -11 4 -14 2 -9 -5 10 -16 22 -15 41 4 9 9 25 14 35 11 11 -3 20 0 20 6
0 6 12 0 26 -14 l26 -24 -13 28 c-12 27 -15 28 -75 25 -46 -2 -60 0 -57 10 3
7 -3 12 -17 12 -22 0 -22 -1 -6 -19z"/>
<path d="M2105 880 c-3 -5 3 -6 14 -3 10 3 22 0 26 -6 3 -6 3 -10 -2 -9 -4 2
-9 -1 -10 -7 -2 -11 28 -8 37 3 11 15 32 12 27 -3 -4 -8 -2 -15 3 -15 6 0 10
5 10 10 0 6 7 10 16 10 9 0 12 5 8 13 -4 6 2 4 13 -6 21 -18 22 -18 33 0 10
16 10 15 4 -6 -4 -16 -3 -21 5 -17 6 4 11 1 11 -6 0 -10 2 -10 9 1 6 9 5 21
-2 33 -10 16 -24 18 -105 17 -51 -1 -94 -5 -97 -9z"/>
<path d="M2310 881 c0 -6 5 -13 12 -17 7 -4 8 -3 4 4 -5 8 -2 10 9 6 14 -6 14
-9 -2 -28 -10 -11 -11 -16 -4 -9 7 6 19 9 26 6 9 -3 12 2 10 14 -2 10 -4 21
-4 26 -1 11 -51 9 -51 -2z"/>
<path d="M2378 865 c3 -17 9 -21 25 -17 14 3 18 1 13 -6 -4 -7 -2 -12 4 -12 6
0 8 -5 4 -12 -4 -7 -3 -8 4 -4 8 5 8 15 2 32 -12 31 -12 34 -1 34 5 0 12 -11
15 -25 4 -14 11 -25 17 -25 8 0 8 4 0 14 -6 7 -9 20 -6 28 4 9 -3 14 -20 16
-14 1 -25 -3 -25 -8 0 -6 -5 -10 -11 -10 -5 0 -8 4 -5 8 3 5 -1 9 -8 9 -8 0
-11 -9 -8 -22z"/>
<path d="M158 863 c7 -3 9 -9 6 -15 -4 -6 -2 -8 4 -5 13 9 44 -2 37 -13 -3 -5
-2 -11 3 -14 4 -2 8 5 8 18 0 12 -7 22 -15 23 -9 1 -25 3 -36 6 -11 2 -14 2
-7 0z"/>
<path d="M870 860 c0 -4 7 -10 15 -14 8 -3 15 -13 15 -22 0 -13 3 -14 15 -4 8
6 20 8 26 4 8 -5 9 -3 5 5 -5 7 -14 10 -21 7 -8 -3 -19 3 -27 12 -12 15 -11
16 4 4 11 -9 18 -10 23 -2 3 5 13 10 21 10 9 0 12 -5 8 -12 -5 -7 -3 -8 7 -2
21 13 99 17 99 5 0 -6 -7 -8 -15 -5 -8 4 -15 1 -15 -6 0 -6 5 -8 10 -5 6 3 10
1 10 -4 0 -6 5 -11 11 -11 5 0 7 5 3 11 -4 8 0 9 15 4 15 -4 19 -3 16 7 -3 8
3 13 19 13 18 0 22 -3 14 -12 -8 -10 -5 -13 10 -13 14 0 19 6 18 18 -3 15 -18
17 -144 19 -78 1 -142 -2 -142 -7z"/>
<path d="M409 842 c5 -8 6 -24 3 -36 -5 -20 -5 -20 12 -3 17 17 19 17 31 0 12
-16 13 -15 8 9 -3 18 -10 25 -19 21 -8 -3 -14 0 -14 6 0 6 15 11 33 11 23 0
28 -3 17 -10 -8 -5 -11 -12 -7 -16 3 -4 13 -2 20 4 8 7 18 8 23 4 4 -4 2 1 -5
11 -19 24 -115 23 -102 -1z"/>
<path d="M627 844 c3 -8 9 -14 15 -14 5 0 6 5 2 12 -4 7 -3 8 5 4 6 -4 9 -11
6 -16 -3 -4 2 -10 10 -14 8 -3 17 -1 19 3 3 5 18 6 32 3 23 -4 26 -2 21 12 -4
10 -7 20 -7 22 0 2 -5 4 -11 4 -5 0 -7 -4 -4 -10 3 -5 1 -10 -4 -10 -6 0 -11
4 -11 9 0 5 -18 9 -39 9 -31 1 -39 -3 -34 -14z"/>
<path d="M840 853 c5 -2 10 -9 10 -14 0 -6 -5 -7 -11 -3 -8 4 -7 0 1 -15 6
-12 15 -19 21 -16 5 4 12 -1 15 -9 3 -9 11 -13 17 -9 6 4 5 10 -4 17 -8 6 -19
20 -25 31 -6 10 -16 20 -22 21 -7 1 -8 0 -2 -3z"/>
<path d="M2573 790 c19 -27 22 -44 7 -35 -5 3 -10 1 -10 -4 0 -6 7 -11 15 -11
22 0 18 34 -7 56 l-22 19 17 -25z"/>
<path d="M420 745 c-7 -9 -8 -15 -2 -15 6 0 12 5 14 10 2 7 14 7 36 1 20 -6
32 -6 32 0 0 5 -9 9 -19 9 -11 0 -26 2 -34 5 -7 3 -20 -1 -27 -10z"/>
<path d="M921 733 c7 -12 16 -19 19 -15 3 4 15 7 27 8 18 0 21 -4 19 -25 -2
-14 -1 -18 1 -8 2 9 9 14 15 11 6 -4 6 1 -1 14 -8 15 -19 20 -38 18 -16 -2
-34 1 -42 8 -12 9 -12 8 0 -11z"/>
<path d="M2430 741 c8 -6 11 -11 6 -11 -5 0 -1 -9 8 -19 17 -19 62 -18 50 1
-4 5 -10 5 -17 -1 -12 -9 -39 10 -36 26 0 4 -5 9 -13 11 -9 2 -8 0 2 -7z"/>
<path d="M2860 687 c-15 -12 -16 -67 0 -67 4 0 6 10 2 22 -3 12 -1 19 4 15 6
-3 10 5 10 19 0 13 0 24 0 24 -1 0 -8 -6 -16 -13z"/>
<path d="M2519 667 c6 -8 7 -18 3 -22 -4 -5 -2 -5 5 -1 7 4 18 -4 26 -20 9
-17 17 -23 21 -15 4 6 2 11 -3 11 -6 0 -11 5 -11 10 0 11 -36 50 -46 50 -4 0
-1 -6 5 -13z"/>
<path d="M2293 650 c-4 -14 -12 -17 -31 -14 -20 3 -23 2 -12 -5 8 -5 18 -7 22
-5 4 3 8 -1 8 -9 0 -8 10 -22 23 -33 l22 -19 -18 21 c-25 30 -14 74 16 66 12
-3 18 -1 14 3 -15 16 -39 14 -44 -5z"/>
<path d="M2575 660 c-3 -5 -1 -10 4 -10 6 0 11 -4 11 -10 0 -5 9 -19 20 -30
23 -23 25 -19 8 12 -21 36 -36 49 -43 38z"/>
<path d="M2750 663 c0 -7 5 -15 11 -19 6 -3 9 -22 6 -43 -3 -20 -3 -28 -1 -18
3 9 9 15 13 13 4 -3 7 3 6 12 -1 20 -35 73 -35 55z"/>
<path d="M1035 650 c-5 -8 -4 -11 3 -6 16 10 25 -12 10 -27 -18 -16 -38 -20
-38 -6 0 5 -5 7 -10 4 -6 -4 -8 -11 -5 -16 4 -5 -1 -9 -9 -9 -10 0 -13 6 -10
15 4 8 1 15 -5 15 -6 0 -11 -4 -11 -10 0 -5 -7 -6 -17 -3 -10 4 -14 2 -9 -5 3
-6 1 -14 -6 -19 -23 -15 -39 -51 -25 -57 9 -5 9 -7 0 -12 -7 -3 -17 -21 -23
-39 -6 -19 -16 -34 -22 -32 -6 1 -13 -4 -15 -11 -3 -8 1 -10 11 -6 9 3 16 1
16 -4 0 -6 10 -12 23 -14 12 -2 21 -9 20 -16 -2 -6 2 -12 7 -12 6 0 10 4 10 9
0 5 9 7 20 4 18 -5 24 -15 21 -35 0 -5 6 -8 15 -8 8 0 13 -4 10 -9 -3 -5 3
-11 13 -14 16 -4 18 -1 11 17 -4 11 -13 20 -20 18 -6 -1 -9 1 -7 5 3 5 -1 23
-8 41 -13 29 -18 32 -55 32 -22 0 -40 -5 -40 -11 0 -5 -4 -8 -10 -4 -5 3 -7
12 -3 21 3 8 8 12 11 9 3 -3 18 6 33 21 23 22 26 30 18 62 -4 20 -6 38 -5 40
2 2 18 -6 36 -16 32 -20 32 -20 67 0 22 14 32 26 28 35 -3 11 -1 13 10 9 21
-8 19 1 -9 30 -17 19 -26 23 -31 14z"/>
<path d="M2740 631 c0 -4 -13 -7 -30 -5 -16 2 -32 -1 -35 -6 -4 -6 -10 -8 -14
-6 -4 3 -8 -1 -8 -9 0 -8 3 -13 5 -10 3 3 12 -1 21 -8 14 -10 14 -10 3 5 -8 9
-9 19 -4 22 10 6 30 -13 30 -27 0 -5 3 -11 6 -14 3 -3 3 6 0 21 -5 29 10 35
24 9 8 -13 10 -11 10 10 0 15 -2 27 -4 27 -2 0 -4 -4 -4 -9z"/>
<path d="M2506 593 c-7 -23 -26 -32 -26 -13 0 6 -8 10 -17 10 -14 0 -13 -3 6
-16 20 -15 24 -15 38 -1 8 8 13 21 11 29 -3 8 -7 5 -12 -9z"/>
<path d="M1784 589 c-4 -7 -3 -10 3 -6 20 12 24 -25 6 -46 -18 -19 -17 -20 4
-6 31 19 35 34 13 54 -14 12 -20 13 -26 4z"/>
<path d="M1077 583 c-3 -5 -8 -24 -12 -43 -5 -30 -2 -39 20 -60 l26 -24 -37
-11 c-28 -8 -41 -18 -50 -41 l-13 -32 32 3 c18 1 31 6 30 11 -3 18 19 45 32
40 8 -3 17 -1 20 5 4 5 11 7 16 3 6 -3 5 -12 -3 -22 -12 -15 -11 -16 4 -4 9 8
23 10 30 6 7 -4 -2 6 -19 23 -31 30 -44 51 -23 38 6 -3 10 4 10 16 0 19 -2 20
-17 8 -11 -10 -14 -10 -9 -1 4 7 2 12 -4 12 -6 0 -9 4 -5 9 3 5 1 13 -5 16 -6
4 -8 15 -5 25 6 18 -9 37 -18 23z"/>
<path d="M2880 490 c0 -5 3 -9 8 -9 21 4 24 -2 7 -14 -14 -11 -15 -16 -5 -22
9 -5 11 -4 6 3 -4 7 -3 12 3 12 5 0 12 -6 15 -12 2 -7 4 -4 3 7 -2 11 -6 26
-10 33 -10 14 -27 16 -27 2z"/>
<path d="M443 445 c-13 -12 -20 -25 -16 -29 4 -4 15 3 25 16 14 19 20 21 36
11 15 -9 19 -8 19 3 0 7 -4 11 -8 8 -4 -2 -10 0 -14 6 -9 14 -17 11 -42 -15z"/>
<path d="M15 449 c-4 -6 -4 -13 -1 -16 3 -4 6 -1 6 5 0 7 5 12 11 12 5 0 8 -4
5 -8 -2 -4 0 -14 6 -22 8 -12 9 -12 4 3 -4 12 0 17 17 18 21 0 21 1 2 9 -28
12 -43 12 -50 -1z"/>
<path d="M1766 453 c-9 -9 -14 -10 -58 -12 -29 -1 -35 -6 -53 -49 -14 -34 -20
-41 -23 -27 -2 11 -8 32 -14 48 -9 23 -16 27 -49 27 -42 0 -49 -13 -24 -46 13
-18 14 -18 8 5 -4 17 -3 22 5 17 7 -4 12 -14 12 -22 0 -8 10 -14 23 -14 14 0
24 -6 24 -15 0 -17 -13 -20 -22 -5 -3 6 -14 10 -23 9 -13 0 -12 -2 4 -9 12 -5
25 -13 28 -19 4 -6 14 -7 23 -4 12 5 14 3 8 -7 -5 -9 -4 -11 3 -6 7 4 12 14
12 22 0 8 5 12 10 9 6 -4 7 -11 4 -17 -4 -7 -2 -8 5 -4 6 4 9 11 6 16 -3 5 0
12 6 16 8 4 7 9 -2 15 -11 7 -10 9 3 9 9 0 19 -6 21 -12 3 -7 6 -1 6 15 1 29
10 34 30 15 10 -11 11 -10 6 4 -4 11 0 18 14 23 12 3 21 11 21 16 0 11 -4 11
-14 2z"/>
<path d="M1357 432 c-13 -14 -14 -21 -5 -30 9 -9 6 -11 -11 -7 -12 2 -19 0
-16 -6 4 -5 -1 -9 -9 -9 -9 0 -16 6 -16 13 0 9 -3 8 -9 -2 -6 -9 -11 -10 -15
-3 -4 6 -14 8 -23 5 -13 -5 -15 -2 -9 13 5 14 4 16 -4 8 -18 -18 4 -50 41 -63
26 -9 36 -8 59 9 37 26 54 26 40 1 -5 -11 -10 -28 -10 -38 0 -21 36 -47 52
-37 6 4 8 3 5 -3 -3 -5 3 -17 14 -26 10 -9 19 -13 19 -9 0 15 -40 72 -51 72
-6 0 -9 13 -7 29 3 31 -16 61 -39 61 -13 0 -13 3 -2 16 12 14 14 14 26 -2 7
-10 13 -13 13 -7 0 6 -6 16 -13 22 -11 8 -18 7 -30 -7z"/>
<path d="M2600 428 c0 -16 -3 -19 -11 -11 -16 16 -46 4 -52 -19 -6 -20 -5 -20
14 1 15 16 24 19 34 11 9 -8 17 -4 29 15 14 22 15 25 1 25 -9 0 -15 -9 -15
-22z"/>
<path d="M174 412 c3 -6 -2 -15 -11 -21 -14 -8 -16 -12 -5 -22 10 -11 12 -10
12 5 0 9 5 14 10 11 6 -4 7 -11 4 -17 -4 -7 -2 -8 5 -4 8 6 9 12 2 20 -6 7 -8
15 -5 18 3 3 0 9 -7 14 -7 4 -10 3 -5 -4z"/>
<path d="M2218 390 c-15 -24 -28 -26 -28 -5 0 8 -4 15 -8 15 -5 0 -8 -10 -6
-22 1 -13 3 -27 3 -32 1 -5 12 3 25 17 13 14 26 24 28 21 3 -2 5 3 5 11 0 20
-4 19 -19 -5z"/>
<path d="M1220 366 c0 -9 -4 -16 -9 -16 -5 0 -7 -9 -4 -20 3 -11 10 -17 17
-14 6 3 3 -1 -6 -9 -10 -8 -15 -17 -11 -20 3 -4 2 -7 -3 -7 -5 0 -9 -15 -9
-32 0 -26 5 -33 18 -31 12 1 16 -4 13 -14 -4 -10 0 -14 17 -13 36 3 40 1 26
-17 -12 -15 -12 -16 4 -10 9 3 17 3 17 -1 0 -4 12 -7 28 -7 15 1 36 -6 46 -14
11 -9 16 -10 12 -4 -15 26 -16 55 -1 49 9 -3 12 0 9 8 -5 12 28 30 49 27 11
-2 8 17 -4 24 -6 4 -26 4 -45 1 -24 -5 -34 -12 -34 -26 0 -24 -10 -50 -20 -50
-4 0 -13 14 -20 31 -13 30 -15 31 -62 27 l-49 -5 32 33 c32 33 32 34 19 74
-14 43 -30 62 -30 36z"/>
<path d="M1423 363 c-7 -3 -13 -9 -13 -15 0 -7 5 -7 13 1 14 11 27 5 27 -11 0
-5 -6 -6 -12 -2 -8 5 -8 1 2 -12 8 -10 15 -21 17 -23 1 -2 2 5 1 15 0 11 1 26
4 34 3 8 3 11 0 7 -2 -4 -9 -4 -15 1 -7 5 -18 7 -24 5z"/>
<path d="M1896 342 c-3 -6 3 -13 14 -17 11 -4 18 -10 15 -15 -3 -5 -1 -11 4
-14 5 -4 12 -2 16 3 3 6 13 8 23 5 9 -2 1 3 -18 12 -19 9 -38 21 -41 26 -4 7
-9 7 -13 0z"/>
<path d="M2360 325 c0 -10 -8 -13 -27 -11 -16 2 -22 1 -15 -1 17 -6 15 -20 -5
-32 -10 -6 -14 -11 -10 -11 5 0 20 9 35 20 20 16 27 18 34 8 6 -8 7 -4 3 11
-5 16 -4 21 4 17 6 -4 11 -2 11 3 0 6 -7 11 -15 11 -8 0 -15 -7 -15 -15z"/>
<path d="M1613 305 c0 -7 7 -11 16 -8 9 2 30 -6 46 -17 17 -11 24 -20 15 -20
-13 0 -13 -2 0 -9 19 -13 34 -2 20 14 -7 8 -8 20 -4 27 6 10 3 9 -9 -1 -15
-12 -17 -11 -17 4 0 9 -6 15 -12 12 -7 -2 -22 -1 -34 4 -14 5 -21 3 -21 -6z"/>
<path d="M413 279 c-7 -7 -13 -18 -13 -23 0 -6 5 -4 10 4 5 8 10 10 10 4 0
-18 28 -25 34 -9 3 9 0 12 -9 9 -7 -3 -15 2 -17 11 -2 13 -5 14 -15 4z"/>
<path d="M2754 220 c-1 -22 3 -37 8 -34 4 3 8 0 8 -7 0 -7 3 -9 6 -6 4 4 2 12
-4 20 -6 7 -9 22 -6 34 3 11 2 23 -3 26 -5 3 -9 -12 -9 -33z"/>
<path d="M915 232 c3 -7 5 -17 5 -22 0 -15 25 -17 39 -3 12 13 11 14 -8 8 -15
-4 -21 -2 -21 8 0 9 6 17 13 20 6 3 2 4 -11 4 -15 -1 -21 -6 -17 -15z"/>
<path d="M2112 229 c3 -8 13 -13 22 -13 9 1 16 -2 16 -8 0 -5 5 -6 10 -3 14 9
12 22 -2 22 -7 0 -21 4 -32 8 -14 6 -17 5 -14 -6z"/>
<path d="M1436 205 c-17 -13 -14 -17 10 -14 4 0 10 -5 15 -12 4 -8 11 -10 15
-6 4 4 -1 14 -12 23 -17 14 -17 15 -1 10 11 -3 16 -2 12 4 -8 13 -16 12 -39
-5z"/>
<path d="M1000 180 c-13 -8 -13 -10 0 -10 11 0 11 -3 2 -12 -15 -15 -16 -28
-2 -28 6 0 9 3 9 8 -3 19 2 23 16 12 8 -7 15 -9 15 -5 0 4 -8 14 -17 22 -17
13 -16 14 5 10 12 -3 20 -1 16 4 -7 12 -25 11 -44 -1z"/>
<path d="M1535 156 c-18 -13 -18 -14 3 -20 12 -4 20 -12 16 -17 -3 -5 -10 -7
-15 -4 -5 4 -9 1 -9 -4 0 -15 15 -14 29 3 9 10 9 16 1 21 -6 4 -9 13 -6 21 7
17 5 17 -19 0z"/>
<path d="M373 147 c17 -15 24 -33 8 -23 -5 4 -4 -5 2 -19 16 -34 24 -31 19 5
-3 18 -13 35 -26 41 -19 9 -19 9 -3 -4z"/>
</g>
</svg>
